<mxfile host="app.diagrams.net" modified="2020-11-08T13:47:09.263Z" agent="5.0 (Windows NT 10.0; Win64; x64) AppleWebKit/537.36 (KHTML, like Gecko) Chrome/86.0.4240.183 Safari/537.36" etag="7PtQRlaXB34uKHBclpxN" version="13.8.8" type="github">
  <diagram id="6a731a19-8d31-9384-78a2-239565b7b9f0" name="Page-1">
    <mxGraphModel dx="2728" dy="1947" grid="1" gridSize="10" guides="1" tooltips="1" connect="1" arrows="1" fold="1" page="1" pageScale="1" pageWidth="1169" pageHeight="827" background="#ffffff" math="0" shadow="0">
      <root>
        <mxCell id="0" />
        <mxCell id="1" parent="0" />
        <mxCell id="1745" value="" style="edgeStyle=none;rounded=0;jumpStyle=none;html=1;shadow=0;labelBackgroundColor=none;startArrow=none;startFill=0;endArrow=classic;endFill=1;jettySize=auto;orthogonalLoop=1;strokeColor=#2F5B7C;strokeWidth=3;fontFamily=Helvetica;fontSize=16;fontColor=#23445D;spacing=5;entryX=1;entryY=0.5;entryDx=0;entryDy=0;" parent="1" source="1749" target="1764" edge="1">
          <mxGeometry relative="1" as="geometry">
            <mxPoint x="560" y="270" as="targetPoint" />
          </mxGeometry>
        </mxCell>
        <mxCell id="1746" value="" style="edgeStyle=none;rounded=0;jumpStyle=none;html=1;shadow=0;labelBackgroundColor=none;startArrow=none;startFill=0;endArrow=classic;endFill=1;jettySize=auto;orthogonalLoop=1;strokeColor=#2F5B7C;strokeWidth=3;fontFamily=Helvetica;fontSize=16;fontColor=#23445D;spacing=5;" parent="1" source="1749" target="1771" edge="1">
          <mxGeometry relative="1" as="geometry" />
        </mxCell>
        <mxCell id="1747" value="" style="edgeStyle=none;rounded=0;jumpStyle=arc;html=1;shadow=0;labelBackgroundColor=none;startArrow=none;startFill=0;endArrow=classic;endFill=1;jettySize=auto;orthogonalLoop=1;strokeColor=#2F5B7C;strokeWidth=3;fontFamily=Helvetica;fontSize=16;fontColor=#23445D;spacing=5;jumpSize=6;dashed=1;" parent="1" source="1749" target="1760" edge="1">
          <mxGeometry relative="1" as="geometry" />
        </mxCell>
        <mxCell id="1748" value="" style="edgeStyle=none;rounded=0;jumpStyle=none;html=1;shadow=0;labelBackgroundColor=none;startArrow=none;startFill=0;endArrow=classic;endFill=1;jettySize=auto;orthogonalLoop=1;strokeColor=#2F5B7C;strokeWidth=3;fontFamily=Helvetica;fontSize=16;fontColor=#23445D;spacing=5;" parent="1" source="1749" target="1753" edge="1">
          <mxGeometry relative="1" as="geometry" />
        </mxCell>
        <mxCell id="1749" value="Oikeuslähteet" style="rounded=1;whiteSpace=wrap;html=1;shadow=0;labelBackgroundColor=none;strokeColor=none;strokeWidth=3;fillColor=#2F5B7C;fontFamily=Helvetica;fontSize=16;fontColor=#FFFFFF;align=center;fontStyle=1;spacing=5;arcSize=7;perimeterSpacing=2;" parent="1" vertex="1">
          <mxGeometry x="495" y="380.5" width="150" height="70" as="geometry" />
        </mxCell>
        <mxCell id="1750" value="" style="edgeStyle=none;rounded=1;jumpStyle=none;html=1;shadow=0;labelBackgroundColor=none;startArrow=none;startFill=0;jettySize=auto;orthogonalLoop=1;strokeColor=#E85642;strokeWidth=3;fontFamily=Helvetica;fontSize=14;fontColor=#FFFFFF;spacing=5;fontStyle=1;fillColor=#b0e3e6;" parent="1" source="1753" target="1756" edge="1">
          <mxGeometry relative="1" as="geometry" />
        </mxCell>
        <mxCell id="1751" value="" style="edgeStyle=none;rounded=1;jumpStyle=none;html=1;shadow=0;labelBackgroundColor=none;startArrow=none;startFill=0;jettySize=auto;orthogonalLoop=1;strokeColor=#E85642;strokeWidth=3;fontFamily=Helvetica;fontSize=14;fontColor=#FFFFFF;spacing=5;fontStyle=1;fillColor=#b0e3e6;" parent="1" source="1753" target="1755" edge="1">
          <mxGeometry relative="1" as="geometry" />
        </mxCell>
        <mxCell id="1752" value="" style="edgeStyle=none;rounded=1;jumpStyle=none;html=1;shadow=0;labelBackgroundColor=none;startArrow=none;startFill=0;jettySize=auto;orthogonalLoop=1;strokeColor=#E85642;strokeWidth=3;fontFamily=Helvetica;fontSize=14;fontColor=#FFFFFF;spacing=5;fontStyle=1;fillColor=#b0e3e6;" parent="1" source="1753" target="1754" edge="1">
          <mxGeometry relative="1" as="geometry" />
        </mxCell>
        <mxCell id="1753" value="Vahvasti velvoittavat oikeuslähteet" style="rounded=1;whiteSpace=wrap;html=1;shadow=0;labelBackgroundColor=none;strokeColor=none;strokeWidth=3;fillColor=#e85642;fontFamily=Helvetica;fontSize=14;fontColor=#FFFFFF;align=center;spacing=5;fontStyle=1;arcSize=7;perimeterSpacing=2;" parent="1" vertex="1">
          <mxGeometry x="495" y="294.5" width="150" height="60" as="geometry" />
        </mxCell>
        <mxCell id="1754" value="1. Eurooppaoikeus" style="rounded=1;whiteSpace=wrap;html=1;shadow=0;labelBackgroundColor=none;strokeColor=none;strokeWidth=3;fillColor=#f08e81;fontFamily=Helvetica;fontSize=14;fontColor=#FFFFFF;align=center;spacing=5;fontStyle=0;arcSize=7;perimeterSpacing=2;" parent="1" vertex="1">
          <mxGeometry x="302.5" y="170" width="150" height="60" as="geometry" />
        </mxCell>
        <mxCell id="1755" value="2. Kansallinen laki" style="rounded=1;whiteSpace=wrap;html=1;shadow=0;labelBackgroundColor=none;strokeColor=none;strokeWidth=3;fillColor=#f08e81;fontFamily=Helvetica;fontSize=14;fontColor=#FFFFFF;align=center;spacing=5;fontStyle=0;arcSize=7;perimeterSpacing=2;" parent="1" vertex="1">
          <mxGeometry x="497.5" y="170" width="150" height="60" as="geometry" />
        </mxCell>
        <mxCell id="1756" value="3. Maan tapa" style="rounded=1;whiteSpace=wrap;html=1;shadow=0;labelBackgroundColor=none;strokeColor=none;strokeWidth=3;fillColor=#f08e81;fontFamily=Helvetica;fontSize=14;fontColor=#FFFFFF;align=center;spacing=5;fontStyle=0;arcSize=7;perimeterSpacing=2;" parent="1" vertex="1">
          <mxGeometry x="687.5" y="170" width="150" height="60" as="geometry" />
        </mxCell>
        <mxCell id="1757" value="" style="edgeStyle=none;rounded=0;jumpStyle=none;html=1;shadow=0;labelBackgroundColor=none;startArrow=none;startFill=0;endArrow=classic;endFill=1;jettySize=auto;orthogonalLoop=1;strokeColor=#1699D3;strokeWidth=3;fontFamily=Helvetica;fontSize=14;fontColor=#FFFFFF;spacing=5;" parent="1" source="1760" target="1763" edge="1">
          <mxGeometry relative="1" as="geometry" />
        </mxCell>
        <mxCell id="1758" value="" style="edgeStyle=none;rounded=0;jumpStyle=none;html=1;shadow=0;labelBackgroundColor=none;startArrow=none;startFill=0;endArrow=classic;endFill=1;jettySize=auto;orthogonalLoop=1;strokeColor=#1699D3;strokeWidth=3;fontFamily=Helvetica;fontSize=14;fontColor=#FFFFFF;spacing=5;" parent="1" source="1760" target="1762" edge="1">
          <mxGeometry relative="1" as="geometry" />
        </mxCell>
        <mxCell id="1759" value="" style="edgeStyle=none;rounded=0;jumpStyle=none;html=1;shadow=0;labelBackgroundColor=none;startArrow=none;startFill=0;endArrow=classic;endFill=1;jettySize=auto;orthogonalLoop=1;strokeColor=#1699D3;strokeWidth=3;fontFamily=Helvetica;fontSize=14;fontColor=#FFFFFF;spacing=5;" parent="1" source="1760" target="1761" edge="1">
          <mxGeometry relative="1" as="geometry" />
        </mxCell>
        <mxCell id="1760" value="Muut? Historialliset, nykyään eivät virallisia oikeuslähteitä Suomessa?" style="rounded=1;whiteSpace=wrap;html=1;shadow=0;labelBackgroundColor=none;strokeColor=none;strokeWidth=3;fillColor=#1699d3;fontFamily=Helvetica;fontSize=14;fontColor=#FFFFFF;align=center;spacing=5;fontStyle=1;arcSize=7;perimeterSpacing=2;" parent="1" vertex="1">
          <mxGeometry x="455" y="564.5" width="165" height="79.5" as="geometry" />
        </mxCell>
        <mxCell id="1761" value="Uskonnolliset normit" style="rounded=1;whiteSpace=wrap;html=1;shadow=0;labelBackgroundColor=none;strokeColor=none;strokeWidth=3;fillColor=#64bbe2;fontFamily=Helvetica;fontSize=14;fontColor=#FFFFFF;align=center;spacing=5;arcSize=7;perimeterSpacing=2;" parent="1" vertex="1">
          <mxGeometry x="360" y="750" width="150" height="60" as="geometry" />
        </mxCell>
        <mxCell id="1762" value="Perusoikeudet 1500/1600l-" style="rounded=1;whiteSpace=wrap;html=1;shadow=0;labelBackgroundColor=none;strokeColor=none;strokeWidth=3;fillColor=#64bbe2;fontFamily=Helvetica;fontSize=14;fontColor=#FFFFFF;align=center;spacing=5;arcSize=7;perimeterSpacing=2;" parent="1" vertex="1">
          <mxGeometry x="502.5" y="673.5" width="122.5" height="60" as="geometry" />
        </mxCell>
        <mxCell id="1763" value="Moraalinormit (antiikki)" style="rounded=1;whiteSpace=wrap;html=1;shadow=0;labelBackgroundColor=none;strokeColor=none;strokeWidth=3;fillColor=#64bbe2;fontFamily=Helvetica;fontSize=14;fontColor=#FFFFFF;align=center;spacing=5;arcSize=7;perimeterSpacing=2;" parent="1" vertex="1">
          <mxGeometry x="330" y="680" width="110" height="60" as="geometry" />
        </mxCell>
        <mxCell id="1764" value="Heikosti velvoittavat oikeuslähteet" style="rounded=1;whiteSpace=wrap;html=1;shadow=0;labelBackgroundColor=none;strokeColor=none;strokeWidth=3;fillColor=#F08705;fontFamily=Helvetica;fontSize=14;fontColor=#FFFFFF;align=center;spacing=5;fontStyle=1;arcSize=7;perimeterSpacing=2;" parent="1" vertex="1">
          <mxGeometry x="204.5" y="375.5" width="150" height="60" as="geometry" />
        </mxCell>
        <mxCell id="1765" value="Hallituksen esitykset (HE) sisältäen perustelut säädettävälle laille" style="rounded=1;whiteSpace=wrap;html=1;shadow=0;labelBackgroundColor=none;strokeColor=#d79b00;strokeWidth=3;fillColor=#ffe6cc;fontFamily=Helvetica;fontSize=14;align=center;spacing=5;arcSize=7;perimeterSpacing=2;" parent="1" vertex="1">
          <mxGeometry x="94.5" y="260" width="170" height="60" as="geometry" />
        </mxCell>
        <mxCell id="1766" value="" style="edgeStyle=none;rounded=0;jumpStyle=none;html=1;shadow=0;labelBackgroundColor=none;startArrow=none;startFill=0;endArrow=classic;endFill=1;jettySize=auto;orthogonalLoop=1;strokeColor=#F08705;strokeWidth=3;fontFamily=Helvetica;fontSize=14;fontColor=#FFFFFF;spacing=5;" parent="1" source="1764" target="1765" edge="1">
          <mxGeometry relative="1" as="geometry" />
        </mxCell>
        <mxCell id="1767" value="Eduskunnan valiokuntien mietinnöt (muutokset HE)" style="rounded=1;whiteSpace=wrap;html=1;shadow=0;labelBackgroundColor=none;strokeColor=#d79b00;strokeWidth=3;fillColor=#ffe6cc;fontFamily=Helvetica;fontSize=14;align=center;spacing=5;arcSize=7;perimeterSpacing=2;" parent="1" vertex="1">
          <mxGeometry x="4.5" y="344" width="150" height="60" as="geometry" />
        </mxCell>
        <mxCell id="1768" value="" style="edgeStyle=none;rounded=0;jumpStyle=none;html=1;shadow=0;labelBackgroundColor=none;startArrow=none;startFill=0;endArrow=classic;endFill=1;jettySize=auto;orthogonalLoop=1;strokeColor=#F08705;strokeWidth=3;fontFamily=Helvetica;fontSize=14;fontColor=#FFFFFF;spacing=5;" parent="1" source="1764" target="1767" edge="1">
          <mxGeometry relative="1" as="geometry" />
        </mxCell>
        <mxCell id="1769" value="Komiteamietinnöt, toimikuntien mietinnöt" style="rounded=1;whiteSpace=wrap;html=1;shadow=0;labelBackgroundColor=none;strokeColor=#d79b00;strokeWidth=3;fillColor=#ffe6cc;fontFamily=Helvetica;fontSize=14;align=center;spacing=5;arcSize=7;perimeterSpacing=2;" parent="1" vertex="1">
          <mxGeometry x="4.5" y="424.5" width="150" height="60" as="geometry" />
        </mxCell>
        <mxCell id="1770" value="" style="edgeStyle=none;rounded=0;jumpStyle=none;html=1;shadow=0;labelBackgroundColor=none;startArrow=none;startFill=0;endArrow=classic;endFill=1;jettySize=auto;orthogonalLoop=1;strokeColor=#F08705;strokeWidth=3;fontFamily=Helvetica;fontSize=14;fontColor=#FFFFFF;spacing=5;entryX=1;entryY=0.25;entryDx=0;entryDy=0;" parent="1" source="1764" target="1769" edge="1">
          <mxGeometry relative="1" as="geometry" />
        </mxCell>
        <mxCell id="1771" value="Sallitut oikeuslähteet" style="rounded=1;whiteSpace=wrap;html=1;shadow=0;labelBackgroundColor=none;strokeColor=none;strokeWidth=3;fillColor=#12aab5;fontFamily=Helvetica;fontSize=14;fontColor=#FFFFFF;align=center;spacing=5;fontStyle=1;arcSize=7;perimeterSpacing=2;" parent="1" vertex="1">
          <mxGeometry x="795" y="385.4999999999999" width="150" height="60" as="geometry" />
        </mxCell>
        <mxCell id="TOOEis8IEXs0ktqzvL0H-1831" style="edgeStyle=orthogonalEdgeStyle;rounded=0;orthogonalLoop=1;jettySize=auto;html=1;entryX=0;entryY=0.5;entryDx=0;entryDy=0;fontColor=#000000;strokeColor=#009999;" edge="1" parent="1" target="TOOEis8IEXs0ktqzvL0H-1823">
          <mxGeometry relative="1" as="geometry">
            <mxPoint x="830" y="540" as="sourcePoint" />
            <Array as="points">
              <mxPoint x="830" y="568" />
            </Array>
          </mxGeometry>
        </mxCell>
        <mxCell id="1772" value="Pehmeä sääntely" style="rounded=1;whiteSpace=wrap;html=1;shadow=0;labelBackgroundColor=none;strokeColor=none;strokeWidth=3;fillColor=#61c6ce;fontFamily=Helvetica;fontSize=14;fontColor=#FFFFFF;align=center;spacing=5;fontStyle=0;arcSize=7;perimeterSpacing=2;" parent="1" vertex="1">
          <mxGeometry x="830" y="480" width="150" height="60" as="geometry" />
        </mxCell>
        <mxCell id="1773" value="" style="edgeStyle=none;rounded=1;jumpStyle=none;html=1;shadow=0;labelBackgroundColor=none;startArrow=none;startFill=0;jettySize=auto;orthogonalLoop=1;strokeColor=#12AAB5;strokeWidth=3;fontFamily=Helvetica;fontSize=14;fontColor=#FFFFFF;spacing=5;fontStyle=1;fillColor=#b0e3e6;" parent="1" source="1771" target="1772" edge="1">
          <mxGeometry relative="1" as="geometry" />
        </mxCell>
        <mxCell id="1774" value="Oikeushistoriallinen tutkimus" style="rounded=1;whiteSpace=wrap;html=1;shadow=0;labelBackgroundColor=none;strokeColor=none;strokeWidth=3;fillColor=#61c6ce;fontFamily=Helvetica;fontSize=14;fontColor=#FFFFFF;align=center;spacing=5;fontStyle=0;arcSize=7;perimeterSpacing=2;" parent="1" vertex="1">
          <mxGeometry x="1020" y="320.5" width="125" height="60" as="geometry" />
        </mxCell>
        <mxCell id="1775" value="" style="edgeStyle=none;rounded=1;jumpStyle=none;html=1;shadow=0;labelBackgroundColor=none;startArrow=none;startFill=0;jettySize=auto;orthogonalLoop=1;strokeColor=#12AAB5;strokeWidth=3;fontFamily=Helvetica;fontSize=14;fontColor=#FFFFFF;spacing=5;fontStyle=1;fillColor=#b0e3e6;" parent="1" source="1771" target="1774" edge="1">
          <mxGeometry relative="1" as="geometry" />
        </mxCell>
        <mxCell id="1776" value="Oikeusvertailu -- vieraan oikeuden heikosti velv. lähteistä löytyvät tulkinnat jos samanl. oikeusjärjestys" style="rounded=1;whiteSpace=wrap;html=1;shadow=0;labelBackgroundColor=none;strokeColor=none;strokeWidth=3;fillColor=#61c6ce;fontFamily=Helvetica;fontSize=14;fontColor=#FFFFFF;align=center;spacing=5;fontStyle=0;arcSize=7;perimeterSpacing=2;" parent="1" vertex="1">
          <mxGeometry x="945" y="204.5" width="160" height="100" as="geometry" />
        </mxCell>
        <mxCell id="1777" value="" style="edgeStyle=none;rounded=1;jumpStyle=none;html=1;shadow=0;labelBackgroundColor=none;startArrow=none;startFill=0;jettySize=auto;orthogonalLoop=1;strokeColor=#12AAB5;strokeWidth=3;fontFamily=Helvetica;fontSize=14;fontColor=#FFFFFF;spacing=5;fontStyle=1;fillColor=#b0e3e6;" parent="1" source="1771" target="1776" edge="1">
          <mxGeometry relative="1" as="geometry" />
        </mxCell>
        <mxCell id="1778" value="Lainopillinen kirjallisuus -- oikeustieteen tutkimustulokset&amp;nbsp;" style="rounded=1;whiteSpace=wrap;html=1;shadow=0;labelBackgroundColor=none;strokeColor=none;strokeWidth=3;fillColor=#61c6ce;fontFamily=Helvetica;fontSize=14;fontColor=#FFFFFF;align=center;spacing=5;fontStyle=0;arcSize=7;perimeterSpacing=2;" parent="1" vertex="1">
          <mxGeometry x="780" y="237.25" width="150" height="74.5" as="geometry" />
        </mxCell>
        <mxCell id="1779" value="" style="edgeStyle=none;rounded=1;jumpStyle=none;html=1;shadow=0;labelBackgroundColor=none;startArrow=none;startFill=0;jettySize=auto;orthogonalLoop=1;strokeColor=#12AAB5;strokeWidth=3;fontFamily=Helvetica;fontSize=14;fontColor=#FFFFFF;spacing=5;fontStyle=1;fillColor=#b0e3e6;" parent="1" source="1771" target="1778" edge="1">
          <mxGeometry relative="1" as="geometry" />
        </mxCell>
        <mxCell id="TOOEis8IEXs0ktqzvL0H-1782" value="EU-sopimukset" style="rounded=1;whiteSpace=wrap;html=1;shadow=0;labelBackgroundColor=none;strokeColor=none;strokeWidth=3;fontFamily=Helvetica;fontSize=14;align=center;spacing=5;fontStyle=0;arcSize=7;perimeterSpacing=2;fillColor=#F8CECC;" vertex="1" parent="1">
          <mxGeometry x="160" y="80" width="110" height="30" as="geometry" />
        </mxCell>
        <mxCell id="TOOEis8IEXs0ktqzvL0H-1783" value="asetukset" style="rounded=1;whiteSpace=wrap;html=1;shadow=0;labelBackgroundColor=none;strokeColor=none;strokeWidth=3;fontFamily=Helvetica;fontSize=14;align=center;spacing=5;fontStyle=0;arcSize=7;perimeterSpacing=2;fillColor=#F8CECC;" vertex="1" parent="1">
          <mxGeometry x="160" y="120" width="110" height="30" as="geometry" />
        </mxCell>
        <mxCell id="TOOEis8IEXs0ktqzvL0H-1784" value="direktiivit" style="rounded=1;whiteSpace=wrap;html=1;shadow=0;labelBackgroundColor=none;strokeColor=none;strokeWidth=3;fontFamily=Helvetica;fontSize=14;align=center;spacing=5;fontStyle=0;arcSize=7;perimeterSpacing=2;fillColor=#F8CECC;" vertex="1" parent="1">
          <mxGeometry x="160" y="160" width="110" height="30" as="geometry" />
        </mxCell>
        <mxCell id="TOOEis8IEXs0ktqzvL0H-1785" value="päätökset (Euroopan ihmisoikeustuoimioistuin ym.):&amp;nbsp;" style="rounded=1;whiteSpace=wrap;html=1;shadow=0;labelBackgroundColor=none;strokeColor=none;strokeWidth=3;fontFamily=Helvetica;fontSize=14;align=center;spacing=5;fontStyle=0;arcSize=7;perimeterSpacing=2;fillColor=#F8CECC;" vertex="1" parent="1">
          <mxGeometry x="70" y="199" width="200" height="41" as="geometry" />
        </mxCell>
        <mxCell id="TOOEis8IEXs0ktqzvL0H-1790" value="" style="endArrow=classic;html=1;fontColor=#000000;exitX=0;exitY=0.5;exitDx=0;exitDy=0;entryX=1;entryY=0.5;entryDx=0;entryDy=0;strokeColor=#EA6B66;" edge="1" parent="1" source="1754" target="TOOEis8IEXs0ktqzvL0H-1785">
          <mxGeometry width="50" height="50" relative="1" as="geometry">
            <mxPoint x="470" y="120" as="sourcePoint" />
            <mxPoint x="420" y="130" as="targetPoint" />
          </mxGeometry>
        </mxCell>
        <mxCell id="TOOEis8IEXs0ktqzvL0H-1795" value="" style="endArrow=classic;html=1;fontColor=#000000;exitX=-0.013;exitY=0.391;exitDx=0;exitDy=0;entryX=1;entryY=0.5;entryDx=0;entryDy=0;strokeColor=#EA6B66;exitPerimeter=0;" edge="1" parent="1" source="1754" target="TOOEis8IEXs0ktqzvL0H-1784">
          <mxGeometry width="50" height="50" relative="1" as="geometry">
            <mxPoint x="303" y="209" as="sourcePoint" />
            <mxPoint x="282" y="229.5" as="targetPoint" />
          </mxGeometry>
        </mxCell>
        <mxCell id="TOOEis8IEXs0ktqzvL0H-1796" value="" style="endArrow=classic;html=1;fontColor=#000000;exitX=0;exitY=0.25;exitDx=0;exitDy=0;entryX=1;entryY=0.75;entryDx=0;entryDy=0;strokeColor=#EA6B66;" edge="1" parent="1" source="1754" target="TOOEis8IEXs0ktqzvL0H-1783">
          <mxGeometry width="50" height="50" relative="1" as="geometry">
            <mxPoint x="313" y="219" as="sourcePoint" />
            <mxPoint x="292" y="239.5" as="targetPoint" />
          </mxGeometry>
        </mxCell>
        <mxCell id="TOOEis8IEXs0ktqzvL0H-1797" value="" style="endArrow=classic;html=1;fontColor=#000000;entryX=1;entryY=0.5;entryDx=0;entryDy=0;strokeColor=#EA6B66;" edge="1" parent="1" target="TOOEis8IEXs0ktqzvL0H-1782">
          <mxGeometry width="50" height="50" relative="1" as="geometry">
            <mxPoint x="300" y="190" as="sourcePoint" />
            <mxPoint x="282" y="153.5" as="targetPoint" />
          </mxGeometry>
        </mxCell>
        <mxCell id="TOOEis8IEXs0ktqzvL0H-1798" value="Kansallinen perustuslaki" style="rounded=1;whiteSpace=wrap;html=1;shadow=0;labelBackgroundColor=none;strokeColor=none;strokeWidth=3;fontFamily=Helvetica;fontSize=14;align=center;spacing=5;fontStyle=0;arcSize=7;perimeterSpacing=2;fillColor=#F8CECC;" vertex="1" parent="1">
          <mxGeometry x="475" width="110" height="40" as="geometry" />
        </mxCell>
        <mxCell id="TOOEis8IEXs0ktqzvL0H-1799" value="&lt;div style=&quot;text-align: left&quot;&gt;&lt;span&gt;Säädökset (lait) oikeudenaloittain&lt;/span&gt;&lt;/div&gt;&lt;div style=&quot;text-align: left&quot;&gt;&lt;span&gt;- pykälät&lt;/span&gt;&lt;/div&gt;&lt;div style=&quot;text-align: left&quot;&gt;&lt;span&gt;- normit&lt;/span&gt;&lt;/div&gt;" style="rounded=1;whiteSpace=wrap;html=1;shadow=0;labelBackgroundColor=none;strokeColor=none;strokeWidth=3;fontFamily=Helvetica;fontSize=14;align=center;spacing=5;fontStyle=0;arcSize=7;perimeterSpacing=2;fillColor=#F8CECC;" vertex="1" parent="1">
          <mxGeometry x="390" y="55" width="125" height="80" as="geometry" />
        </mxCell>
        <mxCell id="TOOEis8IEXs0ktqzvL0H-1800" value="&lt;div style=&quot;text-align: left&quot;&gt;&lt;span&gt;asetukset&lt;/span&gt;&lt;/div&gt;" style="rounded=1;whiteSpace=wrap;html=1;shadow=0;labelBackgroundColor=none;strokeColor=none;strokeWidth=3;fontFamily=Helvetica;fontSize=14;align=center;spacing=5;fontStyle=0;arcSize=7;perimeterSpacing=2;fillColor=#F8CECC;" vertex="1" parent="1">
          <mxGeometry x="600" y="30" width="85" height="30" as="geometry" />
        </mxCell>
        <mxCell id="TOOEis8IEXs0ktqzvL0H-1801" value="&lt;div style=&quot;&quot;&gt;&lt;span&gt;ministeriöiden päätökset ja ohjeet&lt;/span&gt;&lt;/div&gt;" style="rounded=1;whiteSpace=wrap;html=1;shadow=0;labelBackgroundColor=none;strokeColor=none;strokeWidth=3;fontFamily=Helvetica;fontSize=14;align=center;spacing=5;fontStyle=0;arcSize=7;perimeterSpacing=2;fillColor=#F8CECC;" vertex="1" parent="1">
          <mxGeometry x="630" y="70" width="115" height="60" as="geometry" />
        </mxCell>
        <mxCell id="TOOEis8IEXs0ktqzvL0H-1804" value="&lt;div style=&quot;text-align: left&quot;&gt;&lt;span&gt;esim. kauppatavat&lt;/span&gt;&lt;/div&gt;" style="rounded=1;whiteSpace=wrap;html=1;shadow=0;labelBackgroundColor=none;strokeColor=none;strokeWidth=3;fontFamily=Helvetica;fontSize=14;align=center;spacing=5;fontStyle=0;arcSize=7;perimeterSpacing=2;fillColor=#F8CECC;" vertex="1" parent="1">
          <mxGeometry x="800" y="55" width="130" height="30" as="geometry" />
        </mxCell>
        <mxCell id="TOOEis8IEXs0ktqzvL0H-1805" value="&lt;div style=&quot;text-align: left&quot;&gt;&lt;span&gt;esim. jokamiehenoikeudet&lt;/span&gt;&lt;/div&gt;" style="rounded=1;whiteSpace=wrap;html=1;shadow=0;labelBackgroundColor=none;strokeColor=none;strokeWidth=3;fontFamily=Helvetica;fontSize=14;align=center;spacing=5;fontStyle=0;arcSize=7;perimeterSpacing=2;fillColor=#F8CECC;" vertex="1" parent="1">
          <mxGeometry x="800" y="110" width="180" height="30" as="geometry" />
        </mxCell>
        <mxCell id="TOOEis8IEXs0ktqzvL0H-1806" value="" style="endArrow=classic;html=1;fontColor=#000000;exitX=0.5;exitY=0;exitDx=0;exitDy=0;entryX=0.5;entryY=1;entryDx=0;entryDy=0;strokeColor=#EA6B66;" edge="1" parent="1" source="1755" target="TOOEis8IEXs0ktqzvL0H-1799">
          <mxGeometry width="50" height="50" relative="1" as="geometry">
            <mxPoint x="466" y="159.5" as="sourcePoint" />
            <mxPoint x="445" y="120" as="targetPoint" />
          </mxGeometry>
        </mxCell>
        <mxCell id="TOOEis8IEXs0ktqzvL0H-1807" value="" style="endArrow=classic;html=1;fontColor=#000000;exitX=0.5;exitY=0;exitDx=0;exitDy=0;entryX=0.5;entryY=1;entryDx=0;entryDy=0;strokeColor=#EA6B66;" edge="1" parent="1" source="1755" target="TOOEis8IEXs0ktqzvL0H-1798">
          <mxGeometry width="50" height="50" relative="1" as="geometry">
            <mxPoint x="466" y="159.5" as="sourcePoint" />
            <mxPoint x="445" y="120" as="targetPoint" />
          </mxGeometry>
        </mxCell>
        <mxCell id="TOOEis8IEXs0ktqzvL0H-1808" value="" style="endArrow=classic;html=1;fontColor=#000000;exitX=0.5;exitY=0;exitDx=0;exitDy=0;strokeColor=#EA6B66;entryX=0.25;entryY=1;entryDx=0;entryDy=0;" edge="1" parent="1" source="1755" target="TOOEis8IEXs0ktqzvL0H-1800">
          <mxGeometry width="50" height="50" relative="1" as="geometry">
            <mxPoint x="466" y="159.5" as="sourcePoint" />
            <mxPoint x="445" y="120" as="targetPoint" />
          </mxGeometry>
        </mxCell>
        <mxCell id="TOOEis8IEXs0ktqzvL0H-1809" value="" style="endArrow=classic;html=1;fontColor=#000000;exitX=0.5;exitY=0;exitDx=0;exitDy=0;strokeColor=#EA6B66;entryX=0.5;entryY=1;entryDx=0;entryDy=0;" edge="1" parent="1" source="1755" target="TOOEis8IEXs0ktqzvL0H-1801">
          <mxGeometry width="50" height="50" relative="1" as="geometry">
            <mxPoint x="466" y="159.5" as="sourcePoint" />
            <mxPoint x="445" y="120" as="targetPoint" />
          </mxGeometry>
        </mxCell>
        <mxCell id="TOOEis8IEXs0ktqzvL0H-1810" value="" style="endArrow=classic;html=1;fontColor=#000000;exitX=0.5;exitY=0;exitDx=0;exitDy=0;strokeColor=#EA6B66;entryX=0;entryY=1;entryDx=0;entryDy=0;" edge="1" parent="1" source="1756" target="TOOEis8IEXs0ktqzvL0H-1804">
          <mxGeometry width="50" height="50" relative="1" as="geometry">
            <mxPoint x="466" y="159.5" as="sourcePoint" />
            <mxPoint x="445" y="120" as="targetPoint" />
          </mxGeometry>
        </mxCell>
        <mxCell id="TOOEis8IEXs0ktqzvL0H-1811" value="" style="endArrow=classic;html=1;fontColor=#000000;exitX=0.5;exitY=0;exitDx=0;exitDy=0;strokeColor=#EA6B66;" edge="1" parent="1" source="1756">
          <mxGeometry width="50" height="50" relative="1" as="geometry">
            <mxPoint x="466" y="159.5" as="sourcePoint" />
            <mxPoint x="820" y="142" as="targetPoint" />
          </mxGeometry>
        </mxCell>
        <mxCell id="TOOEis8IEXs0ktqzvL0H-1812" value="Lakihankkeet ja säädösvalmistelu&lt;br&gt;- oikeusministeriö&lt;br&gt;- valtioneuvosto&lt;br&gt;- STM" style="rounded=1;whiteSpace=wrap;html=1;shadow=0;labelBackgroundColor=none;strokeColor=#d79b00;strokeWidth=3;fillColor=#ffe6cc;fontFamily=Helvetica;fontSize=14;align=center;spacing=5;arcSize=7;perimeterSpacing=2;" vertex="1" parent="1">
          <mxGeometry x="44.5" y="514.5" width="150" height="90" as="geometry" />
        </mxCell>
        <mxCell id="TOOEis8IEXs0ktqzvL0H-1813" value="" style="edgeStyle=none;rounded=0;jumpStyle=none;html=1;shadow=0;labelBackgroundColor=none;startArrow=none;startFill=0;endArrow=classic;endFill=1;jettySize=auto;orthogonalLoop=1;strokeColor=#F08705;strokeWidth=3;fontFamily=Helvetica;fontSize=14;fontColor=#FFFFFF;spacing=5;entryX=0.75;entryY=0;entryDx=0;entryDy=0;" edge="1" parent="1" source="1764" target="TOOEis8IEXs0ktqzvL0H-1812">
          <mxGeometry relative="1" as="geometry" />
        </mxCell>
        <mxCell id="TOOEis8IEXs0ktqzvL0H-1819" style="edgeStyle=orthogonalEdgeStyle;rounded=0;orthogonalLoop=1;jettySize=auto;html=1;exitX=0;exitY=1;exitDx=0;exitDy=0;entryX=0;entryY=0.5;entryDx=0;entryDy=0;strokeColor=#EA6B66;fontColor=#000000;" edge="1" parent="1" source="TOOEis8IEXs0ktqzvL0H-1814" target="TOOEis8IEXs0ktqzvL0H-1816">
          <mxGeometry relative="1" as="geometry">
            <Array as="points">
              <mxPoint x="223.5" y="590" />
            </Array>
          </mxGeometry>
        </mxCell>
        <mxCell id="TOOEis8IEXs0ktqzvL0H-1814" value="Tuomioistuinten ennakkoratkaisut eli prejudikaatit" style="rounded=1;whiteSpace=wrap;html=1;shadow=0;labelBackgroundColor=none;strokeColor=#d79b00;strokeWidth=3;fillColor=#ffe6cc;fontFamily=Helvetica;fontSize=14;align=center;spacing=5;arcSize=7;perimeterSpacing=2;" vertex="1" parent="1">
          <mxGeometry x="225.5" y="484.5" width="150" height="70" as="geometry" />
        </mxCell>
        <mxCell id="TOOEis8IEXs0ktqzvL0H-1815" value="" style="edgeStyle=none;rounded=0;jumpStyle=none;html=1;shadow=0;labelBackgroundColor=none;startArrow=none;startFill=0;endArrow=classic;endFill=1;jettySize=auto;orthogonalLoop=1;strokeColor=#F08705;strokeWidth=3;fontFamily=Helvetica;fontSize=14;fontColor=#FFFFFF;spacing=5;entryX=0.5;entryY=0;entryDx=0;entryDy=0;" edge="1" parent="1" source="1764" target="TOOEis8IEXs0ktqzvL0H-1814">
          <mxGeometry relative="1" as="geometry" />
        </mxCell>
        <mxCell id="TOOEis8IEXs0ktqzvL0H-1816" value="KKO ennakkopäätökset" style="rounded=1;whiteSpace=wrap;html=1;shadow=0;labelBackgroundColor=none;strokeWidth=3;fontFamily=Helvetica;fontSize=14;align=center;spacing=5;fontStyle=0;arcSize=7;perimeterSpacing=2;strokeColor=none;fillColor=#FFE6CC;" vertex="1" parent="1">
          <mxGeometry x="255.5" y="574.5" width="170" height="30" as="geometry" />
        </mxCell>
        <mxCell id="TOOEis8IEXs0ktqzvL0H-1817" value="KHO vuosikirjapäätökset" style="rounded=1;whiteSpace=wrap;html=1;shadow=0;labelBackgroundColor=none;strokeWidth=3;fontFamily=Helvetica;fontSize=14;align=center;spacing=5;fontStyle=0;arcSize=7;perimeterSpacing=2;strokeColor=none;fillColor=#FFE6CC;" vertex="1" parent="1">
          <mxGeometry x="254.5" y="620" width="171" height="30" as="geometry" />
        </mxCell>
        <mxCell id="TOOEis8IEXs0ktqzvL0H-1820" style="edgeStyle=orthogonalEdgeStyle;rounded=0;orthogonalLoop=1;jettySize=auto;html=1;exitX=0;exitY=1;exitDx=0;exitDy=0;entryX=0;entryY=0.5;entryDx=0;entryDy=0;strokeColor=#EA6B66;fontColor=#000000;" edge="1" parent="1" source="TOOEis8IEXs0ktqzvL0H-1814" target="TOOEis8IEXs0ktqzvL0H-1817">
          <mxGeometry relative="1" as="geometry">
            <Array as="points">
              <mxPoint x="223.5" y="635" />
            </Array>
          </mxGeometry>
        </mxCell>
        <mxCell id="TOOEis8IEXs0ktqzvL0H-1823" value="Lautakuntien päätökset (esim. kuluttajariita~)" style="rounded=1;whiteSpace=wrap;html=1;shadow=0;labelBackgroundColor=none;strokeWidth=3;fontFamily=Helvetica;fontSize=14;align=center;spacing=5;fontStyle=0;arcSize=7;perimeterSpacing=2;strokeColor=none;fillColor=#B3E9EB;" vertex="1" parent="1">
          <mxGeometry x="880" y="550" width="210" height="35.5" as="geometry" />
        </mxCell>
        <mxCell id="TOOEis8IEXs0ktqzvL0H-1824" value="Asiamiesten (esim. edusk. oikeusasiamies) ratkaisut" style="rounded=1;whiteSpace=wrap;html=1;shadow=0;labelBackgroundColor=none;strokeWidth=3;fontFamily=Helvetica;fontSize=14;align=center;spacing=5;fontStyle=0;arcSize=7;perimeterSpacing=2;strokeColor=none;fillColor=#B3E9EB;" vertex="1" parent="1">
          <mxGeometry x="880" y="593" width="210" height="35.5" as="geometry" />
        </mxCell>
        <mxCell id="TOOEis8IEXs0ktqzvL0H-1825" value="Kuluttaja-asiamies" style="rounded=1;whiteSpace=wrap;html=1;shadow=0;labelBackgroundColor=none;strokeWidth=3;fontFamily=Helvetica;fontSize=14;align=center;spacing=5;fontStyle=0;arcSize=7;perimeterSpacing=2;strokeColor=none;fillColor=#B3E9EB;" vertex="1" parent="1">
          <mxGeometry x="880" y="640" width="210" height="30" as="geometry" />
        </mxCell>
        <mxCell id="TOOEis8IEXs0ktqzvL0H-1826" value="Lapsiasiavaltuutettu" style="rounded=1;whiteSpace=wrap;html=1;shadow=0;labelBackgroundColor=none;strokeWidth=3;fontFamily=Helvetica;fontSize=14;align=center;spacing=5;fontStyle=0;arcSize=7;perimeterSpacing=2;strokeColor=none;fillColor=#B3E9EB;" vertex="1" parent="1">
          <mxGeometry x="880" y="680" width="210" height="25.5" as="geometry" />
        </mxCell>
        <mxCell id="TOOEis8IEXs0ktqzvL0H-1827" value="Itsesääntelyelimet" style="rounded=1;whiteSpace=wrap;html=1;shadow=0;labelBackgroundColor=none;strokeColor=none;strokeWidth=3;fillColor=#61c6ce;fontFamily=Helvetica;fontSize=14;fontColor=#FFFFFF;align=center;spacing=5;fontStyle=0;arcSize=7;perimeterSpacing=2;" vertex="1" parent="1">
          <mxGeometry x="1007.5" y="390.5" width="150" height="60" as="geometry" />
        </mxCell>
        <mxCell id="TOOEis8IEXs0ktqzvL0H-1828" value="JSN" style="rounded=1;whiteSpace=wrap;html=1;shadow=0;labelBackgroundColor=none;strokeWidth=3;fontFamily=Helvetica;fontSize=14;align=center;spacing=5;fontStyle=0;arcSize=7;perimeterSpacing=2;strokeColor=none;fillColor=#B3E9EB;" vertex="1" parent="1">
          <mxGeometry x="1032.5" y="460" width="115" height="25.5" as="geometry" />
        </mxCell>
        <mxCell id="TOOEis8IEXs0ktqzvL0H-1829" value="asianajajaliiton valvontalautakunta" style="rounded=1;whiteSpace=wrap;html=1;shadow=0;labelBackgroundColor=none;strokeWidth=3;fontFamily=Helvetica;fontSize=14;align=center;spacing=5;fontStyle=0;arcSize=7;perimeterSpacing=2;strokeColor=none;fillColor=#B3E9EB;" vertex="1" parent="1">
          <mxGeometry x="1032.5" y="494.5" width="127.5" height="40" as="geometry" />
        </mxCell>
        <mxCell id="TOOEis8IEXs0ktqzvL0H-1833" style="edgeStyle=orthogonalEdgeStyle;rounded=0;orthogonalLoop=1;jettySize=auto;html=1;entryX=0;entryY=0.5;entryDx=0;entryDy=0;fontColor=#000000;strokeColor=#009999;" edge="1" parent="1" target="TOOEis8IEXs0ktqzvL0H-1824">
          <mxGeometry relative="1" as="geometry">
            <mxPoint x="830" y="540" as="sourcePoint" />
            <mxPoint x="858" y="614.45" as="targetPoint" />
            <Array as="points">
              <mxPoint x="830" y="540" />
              <mxPoint x="830" y="611" />
            </Array>
          </mxGeometry>
        </mxCell>
        <mxCell id="TOOEis8IEXs0ktqzvL0H-1841" style="edgeStyle=orthogonalEdgeStyle;rounded=0;orthogonalLoop=1;jettySize=auto;html=1;fontColor=#000000;strokeColor=#009999;" edge="1" parent="1">
          <mxGeometry relative="1" as="geometry">
            <mxPoint x="830" y="541" as="sourcePoint" />
            <mxPoint x="880" y="660" as="targetPoint" />
            <Array as="points">
              <mxPoint x="830" y="541" />
              <mxPoint x="830" y="660" />
            </Array>
          </mxGeometry>
        </mxCell>
        <mxCell id="TOOEis8IEXs0ktqzvL0H-1842" style="edgeStyle=orthogonalEdgeStyle;rounded=0;orthogonalLoop=1;jettySize=auto;html=1;fontColor=#000000;strokeColor=#009999;entryX=0;entryY=0.5;entryDx=0;entryDy=0;exitX=0.019;exitY=0.966;exitDx=0;exitDy=0;exitPerimeter=0;strokeWidth=2;" edge="1" parent="1" source="1772" target="TOOEis8IEXs0ktqzvL0H-1826">
          <mxGeometry relative="1" as="geometry">
            <mxPoint x="842" y="630" as="sourcePoint" />
            <mxPoint x="880" y="689" as="targetPoint" />
            <Array as="points">
              <mxPoint x="831" y="693" />
            </Array>
          </mxGeometry>
        </mxCell>
        <mxCell id="TOOEis8IEXs0ktqzvL0H-1843" style="edgeStyle=orthogonalEdgeStyle;rounded=0;orthogonalLoop=1;jettySize=auto;html=1;fontColor=#000000;strokeColor=#009999;exitX=0.079;exitY=0.981;exitDx=0;exitDy=0;exitPerimeter=0;" edge="1" parent="1" source="TOOEis8IEXs0ktqzvL0H-1827">
          <mxGeometry relative="1" as="geometry">
            <mxPoint x="972" y="445.5" as="sourcePoint" />
            <mxPoint x="1030" y="473" as="targetPoint" />
            <Array as="points">
              <mxPoint x="1018" y="473" />
            </Array>
          </mxGeometry>
        </mxCell>
        <mxCell id="TOOEis8IEXs0ktqzvL0H-1844" style="edgeStyle=orthogonalEdgeStyle;rounded=0;orthogonalLoop=1;jettySize=auto;html=1;fontColor=#000000;strokeColor=#009999;exitX=0.083;exitY=0.981;exitDx=0;exitDy=0;exitPerimeter=0;" edge="1" parent="1" source="TOOEis8IEXs0ktqzvL0H-1827" target="TOOEis8IEXs0ktqzvL0H-1829">
          <mxGeometry relative="1" as="geometry">
            <mxPoint x="1007.6660000000002" y="488.7539999999999" as="sourcePoint" />
            <mxPoint x="1020" y="510.47" as="targetPoint" />
            <Array as="points">
              <mxPoint x="1018" y="510" />
            </Array>
          </mxGeometry>
        </mxCell>
        <mxCell id="TOOEis8IEXs0ktqzvL0H-1846" value="" style="edgeStyle=none;rounded=1;jumpStyle=none;html=1;shadow=0;labelBackgroundColor=none;startArrow=none;startFill=0;jettySize=auto;orthogonalLoop=1;strokeColor=#12AAB5;strokeWidth=3;fontFamily=Helvetica;fontSize=14;fontColor=#FFFFFF;spacing=5;fontStyle=1;fillColor=#b0e3e6;entryX=0;entryY=0.5;entryDx=0;entryDy=0;exitX=1.002;exitY=0.596;exitDx=0;exitDy=0;exitPerimeter=0;" edge="1" parent="1" source="1771" target="TOOEis8IEXs0ktqzvL0H-1827">
          <mxGeometry relative="1" as="geometry">
            <mxPoint x="944.9999999999995" y="426.3570588235295" as="sourcePoint" />
            <mxPoint x="1016" y="404.6394117647059" as="targetPoint" />
          </mxGeometry>
        </mxCell>
        <mxCell id="TOOEis8IEXs0ktqzvL0H-1847" value="Oikeusrealismi, tuomarinideologia (US 1900l-?)" style="rounded=1;whiteSpace=wrap;html=1;shadow=0;labelBackgroundColor=none;strokeColor=none;strokeWidth=3;fillColor=#64bbe2;fontFamily=Helvetica;fontSize=14;fontColor=#FFFFFF;align=center;spacing=5;arcSize=7;perimeterSpacing=2;" vertex="1" parent="1">
          <mxGeometry x="570" y="743.5" width="150" height="60" as="geometry" />
        </mxCell>
        <mxCell id="TOOEis8IEXs0ktqzvL0H-1848" value="" style="edgeStyle=none;rounded=0;jumpStyle=none;html=1;shadow=0;labelBackgroundColor=none;startArrow=none;startFill=0;endArrow=classic;endFill=1;jettySize=auto;orthogonalLoop=1;strokeColor=#1699D3;strokeWidth=3;fontFamily=Helvetica;fontSize=14;fontColor=#FFFFFF;spacing=5;entryX=0.5;entryY=0;entryDx=0;entryDy=0;exitX=1;exitY=1;exitDx=0;exitDy=0;" edge="1" parent="1" source="1760">
          <mxGeometry relative="1" as="geometry">
            <mxPoint x="670" y="741.5" as="targetPoint" />
          </mxGeometry>
        </mxCell>
        <mxCell id="TOOEis8IEXs0ktqzvL0H-1849" value="valtiosopimukset?" style="rounded=1;whiteSpace=wrap;html=1;shadow=0;labelBackgroundColor=none;strokeWidth=3;fontFamily=Helvetica;fontSize=14;fontColor=#FFFFFF;align=center;spacing=5;arcSize=7;perimeterSpacing=2;dashed=1;strokeColor=#009999;fillColor=#61C6CE;" vertex="1" parent="1">
          <mxGeometry x="650" y="474.5" width="150" height="45.5" as="geometry" />
        </mxCell>
        <mxCell id="TOOEis8IEXs0ktqzvL0H-1850" value="tuloverosopimukset?" style="rounded=1;whiteSpace=wrap;html=1;shadow=0;labelBackgroundColor=none;strokeWidth=3;fontFamily=Helvetica;fontSize=14;fontColor=#FFFFFF;align=center;spacing=5;arcSize=7;perimeterSpacing=2;dashed=1;strokeColor=#009999;fillColor=#61C6CE;" vertex="1" parent="1">
          <mxGeometry x="650" y="534.5" width="150" height="45.5" as="geometry" />
        </mxCell>
        <mxCell id="TOOEis8IEXs0ktqzvL0H-1851" value="Työtuomioistuin?" style="rounded=1;whiteSpace=wrap;html=1;shadow=0;labelBackgroundColor=none;strokeWidth=3;fontFamily=Helvetica;fontSize=14;align=center;spacing=5;fontStyle=0;arcSize=7;perimeterSpacing=2;strokeColor=none;fillColor=#B3E9EB;" vertex="1" parent="1">
          <mxGeometry x="880" y="718" width="210" height="25.5" as="geometry" />
        </mxCell>
        <mxCell id="TOOEis8IEXs0ktqzvL0H-1852" value="Vakuutusoikeus?" style="rounded=1;whiteSpace=wrap;html=1;shadow=0;labelBackgroundColor=none;strokeWidth=3;fontFamily=Helvetica;fontSize=14;align=center;spacing=5;fontStyle=0;arcSize=7;perimeterSpacing=2;strokeColor=none;fillColor=#B3E9EB;" vertex="1" parent="1">
          <mxGeometry x="880" y="750" width="210" height="25.5" as="geometry" />
        </mxCell>
        <mxCell id="TOOEis8IEXs0ktqzvL0H-1853" value="Tietosuojalautakunta ja -valtuutettu" style="rounded=1;whiteSpace=wrap;html=1;shadow=0;labelBackgroundColor=none;strokeWidth=3;fontFamily=Helvetica;fontSize=14;align=center;spacing=5;fontStyle=0;arcSize=7;perimeterSpacing=2;strokeColor=none;fillColor=#B3E9EB;" vertex="1" parent="1">
          <mxGeometry x="880" y="785" width="210" height="42" as="geometry" />
        </mxCell>
        <mxCell id="TOOEis8IEXs0ktqzvL0H-1854" value="&lt;h1&gt;Tapio Loponen&lt;/h1&gt;013592783&lt;br&gt;&lt;br&gt;Oikeustieteen perusteet (avoin yo)&lt;br&gt;Tehtävä 2 a) oikeuslähteet, kuva" style="text;html=1;strokeColor=none;fillColor=none;spacing=5;spacingTop=-20;whiteSpace=wrap;overflow=hidden;rounded=0;dashed=1;fontColor=#000000;align=center;" vertex="1" parent="1">
          <mxGeometry x="-240" y="-50" width="210" height="120" as="geometry" />
        </mxCell>
      </root>
    </mxGraphModel>
  </diagram>
</mxfile>
